# xmcd
# 
# Track frame offsets:
#     150
#     12872
#     27016
#     40462
#     50769
#     64431
#     77779
#     91073
#     106102
#     121106
#     136459
#     152040
#     167861
#     181174
#     196443
#     211302
#     226132
#     240883
#     255384
#     269328
#     283002
#     297565
#     308423
#     331698
# 
# Disc length: 4605
# 
# Revision: 5
# Processed by: cddbd v1.5.2PL0 Copyright (c) Steve Scherf et al.
# Submitted via: fre:ac v1.0.17
# 
DISCID=4411fb18
DTITLE=Billie HOLIDAY - Ella FITZGERALD - Les Triomphes du Jazz 2-16
DYEAR=1952
DGENRE=Blues
TTITLE0=Billie Holiday - I gotta right to sing the blues
TTITLE1=Billie Holiday - As time goes by
TTITLE2=Billie Holiday - On the sunny side of the street
TTITLE3=Billie Holiday - Gee, baby ! Ain't I good to you ?
TTITLE4=Billie Holiday - The blues are brewin
TTITLE5=Billie Holiday - There is no greater love
TTITLE6=Billie Holiday - I love you, Porgy
TTITLE7=Billie Holiday - 'tain't nobody's business if I do
TTITLE8=Billie Holiday - My sweet Hunk O'Trash
TTITLE9=Billie Holiday - You're my thrill
TTITLE10=Billie Holiday - Blue Moon
TTITLE11=Billie Holiday - Solitude
TTITLE12=Billie Holiday - Love for sale
TTITLE13=Billie Holiday - Tenderly
TTITLE14=Ella Fitzgerald - I didn't mean a word I said
TTITLE15=Ella Fitzgerald - My happiness
TTITLE16=Ella Fitzgerald - I've got the World on a string
TTITLE17=Ella Fitzgerald - Ain't nobody's business but my own
TTITLE18=Ella Fitzgerald - Smooth sailing
TTITLE19=Ella Fitzgerald - Air mail special
TTITLE20=Ella Fitzgerald - Rough ridin'
TTITLE21=Ella Fitzgerald - Goody, goody
TTITLE22=Ella Fitzgerald - Mr Paganini
TTITLE23=Ella Fitzgerald - Preview
EXTD=Chansons grises, chansons roses
EXTT0=
EXTT1=
EXTT2=
EXTT3=
EXTT4=
EXTT5=
EXTT6=
EXTT7=
EXTT8=
EXTT9=
EXTT10=
EXTT11=
EXTT12=
EXTT13=
EXTT14=
EXTT15=
EXTT16=
EXTT17=
EXTT18=
EXTT19=
EXTT20=
EXTT21=
EXTT22=
EXTT23=
PLAYORDER=
